<svg id="Laag_1" data-name="Laag 1" xmlns="http://www.w3.org/2000/svg" xmlns:xlink="http://www.w3.org/1999/xlink" viewBox="0 0 704 336"><defs><style>.cls-1{fill:#494949;}.cls-2{fill:none;}.cls-3{fill:#000085;}.cls-4{fill:#007c70;}.cls-5{fill:gold;}.cls-6{fill:#1b6eff;}.cls-7{fill:#b476ff;}.cls-8{fill:#fff;}.cls-9{fill:#aeaeae;}.cls-10{clip-path:url(#clip-path);}.cls-11{fill:#7c7c7c;}.cls-12{fill:#fa6500;}.cls-13{fill:#599bff;}.cls-14{fill:#282828;}.cls-15{fill:#9a43ff;}.cls-16{fill:#00a08c;}.cls-17{fill:#ff8c00;}.cls-18{fill:#333;}.cls-19{clip-path:url(#clip-path-2);}.cls-20{fill:#2b18ff;}.cls-21{fill:#d09bff;}.cls-22{fill:#e0ecff;}.cls-23{fill:#e4c5ff;}.cls-24{fill:#cf4000;}.cls-25{clip-path:url(#clip-path-3);}.cls-26{fill:#0900d6;}.cls-27{fill:#eabd00;}.cls-28{clip-path:url(#clip-path-4);}.cls-29{fill:#e2a700;}.cls-30{fill:#d78800;}.cls-31{fill:#ff5149;}.cls-32{fill:#ff8780;}.cls-33{clip-path:url(#clip-path-5);}.cls-34{clip-path:url(#clip-path-6);}</style><clipPath id="clip-path"><path id="SVGID" class="cls-1" d="M618.34,198.33l56.51,104.72a5.39,5.39,0,0,1-4.74,7.94,9.14,9.14,0,0,1-8-4.79L616.5,221.74l-6.65-12.33,6-11.08Z"/></clipPath><clipPath id="clip-path-2"><path class="cls-2" d="M418.25,188.67c8.61-34.35,44.3-42.84,69.77-51.37l.59.66c-9.24,2.76-15.21,9.93-15.21,23,0,11,7.31,18.15,15.58,28.43l5.47,6.8,1.9,2.36A94.88,94.88,0,0,1,507,191l19.46,32.66c-41.2,39.89-70,19.72-74.26,16.49a55.42,55.42,0,0,1-17,7c-.74.16-1.48.29-2.23.4-10.87-10.27-16.66-27.14-16.66-42.35A68.22,68.22,0,0,1,418.25,188.67Z"/></clipPath><clipPath id="clip-path-3"><polygon class="cls-2" points="465.76 261.93 465.76 311.47 432.13 311.47 432.13 260.71 459.79 260.71 465.76 260.71 465.76 261.93"/></clipPath><clipPath id="clip-path-4"><path class="cls-2" d="M281.36,292.73l-4.72,8.18-3.14,5.46c-2.42,4.2-8.89,5.51-17.29,4.21-7.66-1.18-16.92-4.54-26.16-9.86-1.84-1.06-3.62-2.16-5.32-3.29-16.17-10.75-25.56-24.18-21.37-31.45l7.87-13.66c-4.62,8,7.33,23.58,26.69,34.74S276.69,300.73,281.36,292.73Z"/></clipPath><clipPath id="clip-path-5"><path class="cls-2" d="M176.06,226.06c-6-4,.81-6.9-8.5-6.9-2.06,0,.28-7.47-1.56-7.26l-2.24-8.46c5.07-3.71,7.11-8.69,7.11-12.92A14.16,14.16,0,0,0,164,178.7l6.79-9.83a59,59,0,0,1,11.6,14.4c7.58-18.19,10.7-25.44,12-29.37h41S238.78,205.85,176.06,226.06Z"/></clipPath><clipPath id="clip-path-6"><path class="cls-2" d="M89.15,159.45c-.64,0-1.29,0-1.93,0-27.29,0-51,23.6-51,53.4,0,27.55,18.61,40.62,34.54,40.62.5,0,1,0,1.5,0,14.16-.79,24.31-12.67,33.9-20h0L84.88,202.15a80.26,80.26,0,0,1,21.69-11.55C106.49,184.52,107.55,167.36,89.15,159.45Z"/></clipPath></defs><path class="cls-3" d="M345.87,177.76c4.25-3.11,6.92-9,6.92-14.61,0-8.1-5.65-12.64-11.93-12.64-5.82,0-8.66,5.15-8.66,10.65a15.51,15.51,0,0,0,1.92,7.56c2.26,4,5.71,7.49,7.07,11.39A14.61,14.61,0,0,0,345.87,177.76Z"/><path class="cls-1" d="M289.4,309.59a5.36,5.36,0,0,0-5.36-5.37h-55.5a5.37,5.37,0,1,0,0,10.73H284A5.36,5.36,0,0,0,289.4,309.59Z"/><path class="cls-4" d="M587,257.8l-38.43-60.14a23.94,23.94,0,0,0-10.21-2.13c-11.51,0-22.51,7.69-22.51,20.32,0,13.76,46.74,53,61,53C584.41,268.87,585.45,264.63,587,257.8Z"/><path class="cls-1" d="M569.45,251.41A50.75,50.75,0,0,0,530,221.18a35.31,35.31,0,0,0-3.25,2.31,6.76,6.76,0,0,0-4.53-1.55c-3.1,0-5.38,1.22-9.23,1.22-7.21,0-14.19-2.53-21.51-2.53-23.77,0-32.37,11.35-39,19.74l-.24-.18a55.42,55.42,0,0,1-17,7h0q.7,1.13,1.56,2.28a1.12,1.12,0,0,0,0,.27c0,1.93,13.33,21.08,42.35,21.08a70.36,70.36,0,0,0,13.27-1.22v42.12l1.29.16H526.8c21.94-2.62,46.26-12.23,46.26-40.35,0-.72.06-1.43.06-2.15A46.21,46.21,0,0,0,569.45,251.41Z"/><path class="cls-1" d="M633.93,307.85a3.85,3.85,0,0,0-3.85-3.85H583.27a3.85,3.85,0,0,0,0,7.7h46.81A3.85,3.85,0,0,0,633.93,307.85Z"/><path class="cls-5" d="M595.82,309.59a6.86,6.86,0,0,1-4.55,1.5c-12.25,0-7.48-18.58-16.61-18.58-8.28,0,0,18.82-12.23,18.82-4.49,0-7.59-3-9.38-7.12a36,36,0,0,0,3.21-2.09,39.51,39.51,0,0,0,16.8-30.57l10.65-19.74,10.37,16.27a42.08,42.08,0,0,0,5.78,7.19h0a41.34,41.34,0,0,0,7.56,6,50.59,50.59,0,0,1,5.82,4.15c4.55,3.81,7.75,8.35,7.75,13.82s-2.89,11.76-9,11.76a8.77,8.77,0,0,1-5.71-2.09,7.84,7.84,0,0,1-5.57,2.31,8.21,8.21,0,0,1-4.83-1.61Z"/><path class="cls-6" d="M597.63,73.13c-5,7.22,2.16,13.79-8.22,19.54a16.61,16.61,0,0,1-7.33,2l-7.7-4.37L550,76.48c0,.56,0,1.13,0,1.7a20.36,20.36,0,0,1-2.25,10.14L536.17,81.6A7.21,7.21,0,1,0,529,94.1l7.07,4a6.83,6.83,0,0,0-2.49,5.45c0,4.13,2.91,8.65,2.91,12.75,0,5.69-4.6,11.14-10.28,11.14-18.07,0,1.46-30.13-21-30.13-7.36,0-12.42,6.89-12.42,13.85,0,7.13,4.83,15.7,13.27,18.44-4.71,2.93-11,5.31-18.08,7.68-7.38-8.32-14.68-16.34-14.68-31.47,0-22.11,19.52-32.16,29.78-33.7h0a12.7,12.7,0,0,1-.16-2c0-8.2,8.11-14.44,16.08-14.44a20.43,20.43,0,0,1,4,.49,21.78,21.78,0,0,0,4.11.42c11.31,0,12.32-10.54,29.11-10.54,8.4,0,9.27,6,15.37,6,5.86,0,10.39-4.74,17.75-4.74,8.34,0,13.76,5.52,13.76,13C603.14,66.3,600.07,69.63,597.63,73.13Z"/><path class="cls-6" d="M503.61,73.72a1.1,1.1,0,0,1-.83-.38,12.11,12.11,0,0,1-3.08-8.15,14.54,14.54,0,0,1,.36-3.17,1.1,1.1,0,0,1,1.32-.82,1.08,1.08,0,0,1,.82,1.31,12.61,12.61,0,0,0-.31,2.68,10,10,0,0,0,2.55,6.71,1.1,1.1,0,0,1-.83,1.82Z"/><path class="cls-6" d="M503.59,73.6a1,1,0,0,1-.33,0c-4.84-1.5-7.75-4.06-8.19-7.2a1.1,1.1,0,1,1,2.17-.3c.43,3,4.37,4.69,6.68,5.41a1.09,1.09,0,0,1-.33,2.14Z"/><path class="cls-3" d="M480.28,128.15a1.1,1.1,0,0,1-.72-1.93c5.32-4.58,7.8-9.48,7.8-15.39a1.1,1.1,0,0,1,1.1-1.1h0a1.09,1.09,0,0,1,1.09,1.1c0,6.51-2.8,12.09-8.55,17.06A1.14,1.14,0,0,1,480.28,128.15Z"/><path class="cls-3" d="M475.44,118a1.1,1.1,0,0,1-.74-1.91,19.75,19.75,0,0,0,6.66-11.73,1.1,1.1,0,0,1,2.17.36,22.17,22.17,0,0,1-7.35,13A1.05,1.05,0,0,1,475.44,118Z"/><path class="cls-3" d="M569.77,88.49a1.1,1.1,0,0,1,0-2.19C584.28,85.85,586,71.41,586.23,67a1.1,1.1,0,0,1,2.2.1c-.58,13.06-7.54,21.06-18.62,21.4Z"/><path class="cls-3" d="M560.88,83.44a1.1,1.1,0,0,1-.22-2.18c8.52-1.68,14-8.36,13.75-13.54a1.1,1.1,0,1,1,2.19-.1c.32,6.84-6.79,14.08-15.51,15.8Z"/><path class="cls-7" d="M582.08,94.71a21.6,21.6,0,0,1,1,6.65,19.47,19.47,0,0,1-.67,4.82,16.53,16.53,0,0,0-8.49-2.89c-4.47,0-7.78,4.1-7.78,8.16,0,3.43,2.73,6.06,6.47,8.46.78.5,1.6,1,2.44,1.47a109.21,109.21,0,0,1-6.53,8.82c-6.12-3.85-16.11-7.9-16.11-17.83a13.57,13.57,0,0,1,.81-4.47l-17.2-9.78c3.18-2.84,8.65-4.33,11.71-9.8l12.82,7.41A13.21,13.21,0,0,1,571,89.88a13.35,13.35,0,0,1,3.37.46Z"/><path class="cls-8" d="M582.46,106.18c-.08.32-.16.64-.26,1a10.94,10.94,0,0,0-2.5-.3c-5.14,0-8.9,4-8.9,8.24a7.24,7.24,0,0,0,1.86,4.83c-3.74-2.4-6.47-5-6.47-8.46,0-4.06,3.31-8.16,7.78-8.16A16.53,16.53,0,0,1,582.46,106.18Z"/><path class="cls-9" d="M618.34,198.33l56.51,104.72a5.39,5.39,0,0,1-4.74,7.94,9.14,9.14,0,0,1-8-4.79L616.5,221.74l-6.65-12.33,6-11.08Z"/><path id="SVGID-2" data-name="SVGID" class="cls-1" d="M618.34,198.33l56.51,104.72a5.39,5.39,0,0,1-4.74,7.94,9.14,9.14,0,0,1-8-4.79L616.5,221.74l-6.65-12.33,6-11.08Z"/><g class="cls-10"><rect class="cls-9" x="656.57" y="299.45" width="24.9" height="18.16"/><rect class="cls-11" x="652.48" y="288.82" width="24.9" height="10.63"/></g><path class="cls-3" d="M652.83,85.94a8.5,8.5,0,0,1,0,17H624.44v-17Z"/><path class="cls-7" d="M653.39,115.67c4.79.1,8.65,8.5,8.65,18.84s-3.86,18.74-8.65,18.84Z"/><polygon class="cls-6" points="653.39 153.35 653.39 157.05 642.65 153.65 642.65 115.87 642.65 115.87 653.39 111.97 653.39 115.67 653.39 153.35"/><polygon class="cls-3" points="642.65 115.87 642.65 153.65 633.19 150.65 633.19 119.3 642.65 115.87 642.65 115.87"/><path class="cls-6" d="M633.55,150.65v1.14a7.19,7.19,0,0,1-7.18,7.18H593.44a7.18,7.18,0,0,1-7.17-7.18V117.23a7.17,7.17,0,0,1,7.17-7.18h32.93a7.18,7.18,0,0,1,7.18,7.18v33.42Z"/><polygon class="cls-9" points="631.26 167.21 631.26 180.2 625.73 180.2 590.48 180.2 587.47 180.2 587.47 167.21 593.01 167.21 625.72 167.21 631.26 167.21"/><path class="cls-3" d="M625.73,180.2v18.13H593V195h13.84a5.77,5.77,0,0,0,0-11.54H590.48V180.2Z"/><path class="cls-3" d="M601.24,159h16.25a8.36,8.36,0,0,1,8.23,8.24H593A8.36,8.36,0,0,1,601.24,159Z"/><path class="cls-9" d="M624.44,102.61v1.57a6.76,6.76,0,0,1-3.39,5.87H608.7v-8.61a4.89,4.89,0,0,0-4.89-4.89H602V82.73a6.79,6.79,0,0,1,6.78-6.79h8.9a6.79,6.79,0,0,1,6.78,6.79v19.88Z"/><path class="cls-1" d="M607.42,281.26a50.59,50.59,0,0,1,5.82,4.15,30.51,30.51,0,0,1,3.26,3.15V221.74l-6.65-12.33-6.74,12.48V278.2A42,42,0,0,0,607.42,281.26Z"/><path class="cls-11" d="M601.35,198.33l-22.22,41.18-8.31,15.57a46,46,0,0,1,2.3,14.32c0,.72-.06,1.43-.06,2.15a43.38,43.38,0,0,1-.61,7.4l8.38-15.53,22.28-41.53,6.74-12.48,6-11.08Z"/><path class="cls-6" d="M606.85,183.41a5.77,5.77,0,0,1,0,11.54H579.32a5.77,5.77,0,1,0,0-11.53h27.53Z"/><path class="cls-12" d="M608.7,101.44v8.61H594.9v-8.61a4.89,4.89,0,0,1,4.89-4.89h4A4.89,4.89,0,0,1,608.7,101.44Z"/><path class="cls-13" d="M579.32,183.42a5.77,5.77,0,1,1-5.76,5.76A5.77,5.77,0,0,1,579.32,183.42Z"/><path class="cls-3" d="M579.7,106.84a10.94,10.94,0,0,1,2.5.3,55.25,55.25,0,0,1-7.1,14.24c-.84-.48-1.66-1-2.44-1.47a7.24,7.24,0,0,1-1.86-4.83C570.8,110.85,574.56,106.84,579.7,106.84Z"/><path class="cls-5" d="M550,76.48l24.4,13.86a13.35,13.35,0,0,0-3.37-.46,13.21,13.21,0,0,0-10.41,5.85l-12.82-7.41A20.36,20.36,0,0,0,550,78.18C550,77.61,550,77,550,76.48Z"/><path class="cls-5" d="M528.46,173.52l.08,7.43.07.21a87.4,87.4,0,0,0-10.67,4.07L502,181h0a38.79,38.79,0,0,0,1.17-9.43c0-16.57-7.24-25.34-14.59-33.64l-.59-.66c7.08-2.37,13.37-4.75,18.08-7.68-8.44-2.74-13.27-11.31-13.27-18.44,0-7,5.06-13.85,12.42-13.85,22.42,0,2.89,30.13,21,30.13,5.68,0,10.28-5.45,10.28-11.14,0-4.1-2.91-8.62-2.91-12.75a6.83,6.83,0,0,1,2.49-5.45l17.2,9.78a13.57,13.57,0,0,0-.81,4.47c0,9.93,10,14,16.11,17.83a22.54,22.54,0,0,1,2.25,1.56,5.77,5.77,0,0,1,2.1,4.51c0,3.67-3.1,5.7-6.37,5.7a8.2,8.2,0,0,1-3.11-.64c-.21,1-.44,1.93-.67,2.88l-7.7-3.52a17.66,17.66,0,0,0,5.91,10c-4.29,13.73-11.41,23.41-27.13,23.41A22.39,22.39,0,0,1,528.46,173.52Z"/><path class="cls-5" d="M517.94,185.23a87.4,87.4,0,0,1,10.67-4.07,59.34,59.34,0,0,1,17.18-2.86c7.37,0,16.62,2,16.62,9.3a7.81,7.81,0,0,1-2.81,5.92,8.68,8.68,0,0,1,4.58,7.42,7.81,7.81,0,0,1-4.48,6.87,5.37,5.37,0,0,1,1.44,3.55,6,6,0,0,1-1.12,3.26,11.86,11.86,0,0,1-10,4.82c-3.65,0-7.43-1.05-11.12-1.05a16.83,16.83,0,0,0-9,2.79,34.61,34.61,0,0,0-3.51,2.52L507,191A101.39,101.39,0,0,1,517.94,185.23Z"/><path class="cls-14" d="M555.07,140.69l7.7,3.52c-.54,2.26-1.13,4.44-1.79,6.52A17.66,17.66,0,0,1,555.07,140.69Z"/><path class="cls-15" d="M536.17,81.6l11.61,6.72c-3.06,5.47-8.53,7-11.71,9.8l-7.07-4a7.21,7.21,0,1,1,7.17-12.5Z"/><path class="cls-3" d="M502,181l15.9,4.2A101.39,101.39,0,0,0,507,191a94.88,94.88,0,0,0-10.63,7.52l-1.9-2.36A37.82,37.82,0,0,0,502,181Z"/><path class="cls-1" d="M503.2,171.6A38.79,38.79,0,0,1,502,181a37.82,37.82,0,0,1-7.58,15.17L489,189.4C480.71,179.12,473.4,172,473.4,161c0-13.08,6-20.25,15.21-23C496,146.26,503.2,155,503.2,171.6Z"/><path class="cls-16" d="M418.25,188.67c8.61-34.35,44.3-42.84,69.77-51.37l.59.66c-9.24,2.76-15.21,9.93-15.21,23,0,11,7.31,18.15,15.58,28.43l5.47,6.8,1.9,2.36A94.88,94.88,0,0,1,507,191l19.46,32.66c-41.2,39.89-70,19.72-74.26,16.49a55.42,55.42,0,0,1-17,7c-.74.16-1.48.29-2.23.4-10.87-10.27-16.66-27.14-16.66-42.35A68.22,68.22,0,0,1,418.25,188.67Z"/><path class="cls-17" d="M528.47,175a1.24,1.24,0,0,1-.27,0A15.79,15.79,0,0,1,517.05,166a1.1,1.1,0,0,1,2-.9,13.76,13.76,0,0,0,9.67,7.7,1.1,1.1,0,0,1-.26,2.16Z"/><path class="cls-17" d="M560,194.26a1.17,1.17,0,0,1-.47-.1,12.52,12.52,0,0,0-7.85-.69,1.1,1.1,0,1,1-.43-2.15,14.67,14.67,0,0,1,9.22.85,1.09,1.09,0,0,1-.47,2.09Z"/><path class="cls-17" d="M560.1,209.41a1.1,1.1,0,0,1-.89-.46c-2.06-2.84-6.26-3.54-9.22-3.28a1.09,1.09,0,1,1-.2-2.18c3.71-.33,8.6.59,11.2,4.17a1.1,1.1,0,0,1-.25,1.54A1.09,1.09,0,0,1,560.1,209.41Z"/><path class="cls-18" d="M511.08,308.3a1.09,1.09,0,0,1-1.05-.79,1.1,1.1,0,0,1,.75-1.36c11.38-3.26,20.42-9.25,26.14-17.31a37,37,0,0,0,6.75-24c-1.13-15.19-11-26.62-24.59-28.42a1.09,1.09,0,1,1,.29-2.17A28.81,28.81,0,0,1,538,244.59a35.73,35.73,0,0,1,7.81,20,39.12,39.12,0,0,1-7.14,25.47c-6,8.47-15.46,14.75-27.33,18.15A1,1,0,0,1,511.08,308.3Z"/><path class="cls-18" d="M484.36,279a1.1,1.1,0,1,1,0-2.19c11.18-.1,21.27-4.07,27.67-10.92a1.1,1.1,0,1,1,1.6,1.51c-6.81,7.27-17.48,11.51-29.26,11.6Z"/><path class="cls-18" d="M544.65,273.27a1.1,1.1,0,0,1-.83-1.81,32.18,32.18,0,0,1,19.31-10.24c.33-.05.65-.09,1-.12a1.1,1.1,0,0,1,.25,2.18c-.31,0-.61.07-.91.12a29.9,29.9,0,0,0-18,9.49A1.1,1.1,0,0,1,544.65,273.27Z"/><path class="cls-17" d="M596.9,311.36a1.08,1.08,0,0,1-.6-.18,1.1,1.1,0,0,1-.32-1.52c3.6-5.47,1.49-12.77-2.2-17.58a1.1,1.1,0,0,1,1.74-1.34c4.16,5.43,6.49,13.76,2.3,20.13A1.12,1.12,0,0,1,596.9,311.36Z"/><path class="cls-17" d="M606.62,310.31a1.09,1.09,0,0,1-.81-1.84c3.78-4.15,4.44-12.29-1.79-19.19a1.1,1.1,0,1,1,1.63-1.47,20.59,20.59,0,0,1,5.08,10.74,13.65,13.65,0,0,1-3.3,11.4A1.07,1.07,0,0,1,606.62,310.31Z"/><circle class="cls-12" cx="541.2" cy="123.52" r="0.9"/><circle class="cls-12" cx="547.81" cy="124.6" r="0.9"/><circle class="cls-12" cx="547.95" cy="131.42" r="0.9"/><circle class="cls-12" cx="553.5" cy="128.58" r="0.9"/><circle class="cls-12" cx="541.39" cy="130.93" r="0.9"/><path class="cls-3" d="M483.87,160.76a7.52,7.52,0,0,1-7.52-7.51,1.1,1.1,0,0,1,2.2,0,5.32,5.32,0,0,0,10.64,0,1.1,1.1,0,1,1,2.19,0A7.52,7.52,0,0,1,483.87,160.76Z"/><path class="cls-3" d="M490.39,167.48a7.52,7.52,0,0,1-7.51-7.51,1.1,1.1,0,1,1,2.19,0,5.32,5.32,0,0,0,10.64,0,1.1,1.1,0,0,1,2.2,0A7.52,7.52,0,0,1,490.39,167.48Z"/><path class="cls-3" d="M492,182.41a7.52,7.52,0,0,1-7.52-7.52,1.1,1.1,0,0,1,2.2,0,5.32,5.32,0,1,0,10.64,0,1.1,1.1,0,0,1,2.19,0A7.52,7.52,0,0,1,492,182.41Z"/><g class="cls-19"><circle class="cls-4" cx="433.28" cy="164.47" r="4.93"/><circle class="cls-4" cx="457.45" cy="170.13" r="4.93"/><circle class="cls-4" cx="465.99" cy="144.51" r="4.93"/><circle class="cls-4" cx="491.97" cy="243.38" r="4.93"/><circle class="cls-4" cx="509.55" cy="218.65" r="4.93"/><circle class="cls-4" cx="472.13" cy="221.37" r="4.93"/><circle class="cls-4" cx="478.02" cy="192.14" r="4.93"/><circle class="cls-4" cx="453.24" cy="206.33" r="4.93"/><circle class="cls-4" cx="431.11" cy="188.53" r="4.93"/><circle class="cls-4" cx="425.34" cy="219.56" r="4.93"/><path class="cls-4" d="M447.43,237.21a4.93,4.93,0,1,0-5.23-6.52A44,44,0,0,0,447.43,237.21Z"/></g><path class="cls-14" d="M454.31,244.19a1.09,1.09,0,0,1-.68-.24,14.28,14.28,0,0,0-1.43-1c-.34-.21-.71-.43-1.13-.71l-.07-.06c-11.33-8.93-18.69-22.57-20.71-38.42a1.09,1.09,0,1,1,2.17-.28c2,15.26,9,28.38,19.87,37,.38.26.71.46,1,.65a17.19,17.19,0,0,1,1.65,1.12,1.1,1.1,0,0,1,.17,1.54A1.06,1.06,0,0,1,454.31,244.19Z"/><path class="cls-4" d="M349,76.12H283.39c.62-1.75,1.07-3.66,1.71-5.51a11.78,11.78,0,0,1,9.61-7.81,11.8,11.8,0,0,1,1.46-.09l40.54-.06a16.66,16.66,0,0,1,2.3.15c6.3.91,8.83,5.62,9.68,11.14C348.8,74.66,348.89,75.38,349,76.12Z"/><path class="cls-16" d="M310.08,49.26a6.66,6.66,0,0,1-3-5.4c0-4.63,5.28-9.28,11.35-9.28,5.75,0,8.7,3.63,8.7,8.3a8.92,8.92,0,0,1-2.77,6.64c.81-.07,1.57-.11,2.29-.11,7.53,0,10.8,3.92,11.94,9.76A27.07,27.07,0,0,1,339,62.8a16.66,16.66,0,0,0-2.3-.15l-40.54.06a11.8,11.8,0,0,0-1.46.09,15.91,15.91,0,0,1,3.85-9.07c2.8-3,5.11-4.51,10.1-4.51C309.12,49.22,309.6,49.24,310.08,49.26Z"/><rect class="cls-6" x="292.89" y="66.19" width="14.54" height="12.28"/><path class="cls-6" d="M311.05,242c-2.08-3.45-5-6.3-7.24-9.64-1.52-2.29-6.92-19.49-28.09-19.49-15.35,0-24.81,13.3-24.81,25.78,0,12.12,8.71,21.37,24,21.37,10.51,0,29.63-14.75,32.52-19.55"/><path class="cls-17" d="M385,168.2c-3.74-.7-5.59-3.84-5.59-7.26a9.91,9.91,0,0,1,.39-2.74,7.51,7.51,0,0,1-4.15-7.14c0-7.69,8.37-13,15.81-13a30.29,30.29,0,0,1,6.74.71,20.06,20.06,0,0,1,12.5,8.17c5,7.17,7.37,16.48,7.37,26.24a65.86,65.86,0,0,1-1.84,15.27c-2.41,10-7.1,19.52-13.72,26.71a49.27,49.27,0,0,0-4.29-5.74V176.93c-2.3.29-4.62,1-6.83,1a7.13,7.13,0,0,1-7.18-6.72A6.62,6.62,0,0,1,385,168.2Z"/><path class="cls-20" d="M398.41,249.77v61.58h-.17v-102a49.27,49.27,0,0,1,4.29,5.74c6,9.4,9.59,21.45,11.32,34.64Z"/><path class="cls-5" d="M398.24,311.35v-102c-7.47-8.58-17.81-13.87-31.74-14.12V311.35Z"/><path class="cls-5" d="M366.5,130.43V90.86h31.74v47.8l0,.08a30.29,30.29,0,0,0-6.74-.71c-7.44,0-15.81,5.34-15.81,13a7.51,7.51,0,0,0,4.15,7.14,9.91,9.91,0,0,0-.39,2.74c0,3.42,1.85,6.56,5.59,7.26a6.62,6.62,0,0,0-.79,3,7.13,7.13,0,0,0,7.18,6.72c2.21,0,4.53-.74,6.83-1v32.46c-7.47-8.58-17.81-13.87-31.74-14.12V130.43Z"/><path class="cls-21" d="M366.5,297.53v13.82H355.7A54.4,54.4,0,0,1,352,297.53H366.5Z"/><path class="cls-4" d="M366.5,276.16v21.37H352a68.44,68.44,0,0,1-.58-9,80.69,80.69,0,0,1,1.7-16.8,24.6,24.6,0,0,1,13,4.39Z"/><path class="cls-21" d="M366.5,268.89v7.27h-.37a24.6,24.6,0,0,0-13-4.39q.3-1.44.66-2.88H366.5Z"/><path class="cls-17" d="M366.5,185.41v9.86h-1.07a38,38,0,0,0-8.81,1h0V174.72a30.86,30.86,0,0,1,9.51,10.69Z"/><path class="cls-17" d="M358.85,115.05a5,5,0,0,0-5-5.31h-.24c.15-.45.29-.91.43-1.38a45.65,45.65,0,0,0,1.83-12.73,39.32,39.32,0,0,0-.49-6.45c-.15-1-.34-1.86-.56-2.74a25.27,25.27,0,0,0-.83-2.63,51.6,51.6,0,0,1-5.95.34c-7.86,0-18.26-1.42-24.75-6.6-3.58,10.36-20.39,14.23-20.39,27.92,0,8.68,9.66,13.47,16.53,13.47.52,0,1.05,0,1.57-.06l2.58,22.19a36.11,36.11,0,0,1-10.42,1.65,26.61,26.61,0,0,1-18-6.73c-1.42,6.83-8.4,12.25-17.45,14.69H312a22.74,22.74,0,0,0,8,5.65,28.45,28.45,0,0,0,11.06,2h.53c14-.2,24-8.59,24-26.28a65.42,65.42,0,0,0-.63-8.63c-.16-1.12-.33-2.23-.51-3.32A4.81,4.81,0,0,0,358.85,115.05Z"/><path class="cls-21" d="M356.62,196.24h0a36.75,36.75,0,0,0-9.5,3.67l-10.7-32.47a39.75,39.75,0,0,1,20.2,7.27Z"/><path class="cls-13" d="M343.41,202.21c7.12,6.09,10.81,16.2,10.81,26.63,0,9.59-3.1,19.17-7.37,27.88a116.49,116.49,0,0,1-7,12.17H311.12c2.35-12.93,23.57-22,23.57-34.38,0-5.76-4.7-11.89-14.33-11.89-8.1,0-16.71,3.44-21.25,3.44a15.39,15.39,0,0,1-7.05-1.61,14.25,14.25,0,0,1-3-2.2c2.76-3,5.33-6,7.78-8.61,3-3.22,5.37-8.35,10.8-8.35,2.28,0,4.41.88,6.54.88a6.76,6.76,0,0,0,6.59-6.62,7.47,7.47,0,0,0-.48-2.55,41.46,41.46,0,0,1,6.9-.6A24.44,24.44,0,0,1,343.41,202.21Z"/><path class="cls-6" d="M280.07,234.24a11.4,11.4,0,0,0-1.68-2.05A83.59,83.59,0,0,0,289,222.25a14.25,14.25,0,0,0,3,2.2,15.39,15.39,0,0,0,7.05,1.61c4.54,0,13.15-3.44,21.25-3.44,9.63,0,14.33,6.13,14.33,11.89,0,12.42-21.22,21.45-23.57,34.38H280.43c3.11-5.72,14-19.5,20.53-22.62C301.2,246.06,280.07,234.24,280.07,234.24Z"/><path class="cls-17" d="M352.09,205.37c-8.21,3.06-11.66,5.71-16.58,10.74a1,1,0,0,0-.15,1.22,1.33,1.33,0,0,0,1.25.57,24.44,24.44,0,0,1,6.33,0,39.37,39.37,0,0,0-13.38,10.64.66.66,0,0,0,0,.83.9.9,0,0,0,.88.29c3.76-.74,9.74-2.45,12.44-2.57a17.37,17.37,0,0,0-6,7,.9.9,0,0,0,.2,1,1.24,1.24,0,0,0,1.13.31c3.91-.78,12.86-2.51,19.27-.76"/><path class="cls-17" d="M300.75,208.83c-10,14.43-28.07,29.49-45.5,29.49-13.79,0-24.52-9-24.52-25.41,0-6.7,1.43-13.51,3.08-19.94l1-3.24c.35-1.1.75-2.18,1.19-3.27h0l39.65-.83c-.73,2.23-1.52,4.44-2.3,6.66l0,0a67.31,67.31,0,0,1,27.13-18,66,66,0,0,1,19.35-3.81c1.7-.06,2.74,0,2.92,0,5.72,0,13.78.27,13.78,6.06,0,3.08-2.9,6.44-8.84,6.44-.81,0-.55,0-1.39,0a16.18,16.18,0,0,0-3.28.29h0a7.39,7.39,0,0,1,1.86,4.93,8.22,8.22,0,0,1-5.25,7.55h0a10,10,0,0,1,.62,1.28,7.47,7.47,0,0,1,.48,2.55,6.76,6.76,0,0,1-6.59,6.62c-2.13,0-4.26-.88-6.54-.88-3,0-5.09,1.58-6.85,3.54"/><path class="cls-12" d="M320.06,168.55a8.65,8.65,0,0,1-.23,1.95,66,66,0,0,0-19.35,3.81,36.93,36.93,0,0,1,3-4.29c3.37-3.92,7-7.33,11.35-7.33a4.76,4.76,0,0,1,4.49,2.7A6.91,6.91,0,0,1,320.06,168.55Z"/><path class="cls-21" d="M321.82,156.34a15.41,15.41,0,0,1-8.75,4.51,9.35,9.35,0,0,1-1.37.11c-5.7,0-9.56-4.38-11.58-10.1l.06-.17h13.67A22.74,22.74,0,0,0,321.82,156.34Z"/><path class="cls-22" d="M300.18,150.69l-.06.17-.06-.17Z"/><path class="cls-21" d="M300.06,150.69l.06.17c-2.16,5.92-5.33,10.62-12.06,10.62-7.34,0-11.3-4.75-13.77-9.29,1.68-.55,3.42-1.05,5.2-1.5Z"/><path class="cls-17" d="M296.44,92.05h0a44.25,44.25,0,0,0-7.62,24.46,35.89,35.89,0,0,0,.81,7.71c-10.44-2.16-14.9-8.94-14.9-16.62A16.26,16.26,0,0,1,291,91.09,17,17,0,0,1,296.44,92.05Z"/><path class="cls-23" d="M268,198.84a1,1,0,0,1-.65-.22,1.09,1.09,0,0,1-.24-1.53,74,74,0,0,1,11.74-12.67,1.1,1.1,0,0,1,1.42,1.68,71.52,71.52,0,0,0-11.39,12.29A1.1,1.1,0,0,1,268,198.84Z"/><path class="cls-24" d="M340.2,130.08a1.1,1.1,0,0,1-.46-2.09c3.2-1.5,5.7-5.64,5.7-9.43a6.58,6.58,0,0,0-1.66-4.57,1.08,1.08,0,0,1,.06-1.55,1.1,1.1,0,0,1,1.55.06,8.75,8.75,0,0,1,2.25,6.06c0,4.65-3,9.56-7,11.42A1.1,1.1,0,0,1,340.2,130.08Z"/><path class="cls-24" d="M352.14,124.74a11.7,11.7,0,0,1-6.77-1.92,1.09,1.09,0,0,1-.28-1.52,1.11,1.11,0,0,1,1.53-.29c2.06,1.42,4.89,1.86,8.21,1.3a1.1,1.1,0,1,1,.37,2.17A19.25,19.25,0,0,1,352.14,124.74Z"/><path class="cls-5" d="M391.05,179.78c-3.91,0-8.28-3.21-8.28-7.82s5.31-10.1,11.89-10.1a8.59,8.59,0,0,1,2.57.38,1.09,1.09,0,1,1-.65,2.09,6.55,6.55,0,0,0-1.92-.27c-4.27,0-9.69,3.72-9.69,7.9a6,6,0,0,0,6.08,5.62A20.52,20.52,0,0,0,395,177a23.3,23.3,0,0,1,4.5-.59,9.88,9.88,0,0,1,2.3.26,1.1,1.1,0,0,1-.53,2.14,7,7,0,0,0-1.77-.2,20.66,20.66,0,0,0-4.07.55A23.06,23.06,0,0,1,391.05,179.78Z"/><path class="cls-5" d="M384.66,170l-.21,0c-3.93-.75-6.48-4-6.48-8.35,0-5.4,4.1-11.13,11.69-11.13a17.75,17.75,0,0,1,4.4.58,1.1,1.1,0,1,1-.54,2.13,15.93,15.93,0,0,0-3.86-.52c-4.6,0-9.49,3.14-9.49,8.94,0,2.57,1.23,5.54,4.69,6.19a1.1,1.1,0,0,1-.2,2.18Z"/><path class="cls-6" d="M377.41,297.55h-8.24a1.1,1.1,0,1,1,0-2.19h8.24a1.1,1.1,0,1,1,0,2.19Z"/><path class="cls-6" d="M377.41,289.65h-8.24a1.1,1.1,0,0,1,0-2.2h8.24a1.1,1.1,0,0,1,0,2.2Z"/><path class="cls-6" d="M377.41,281.74h-8.24a1.1,1.1,0,1,1,0-2.2h8.24a1.1,1.1,0,1,1,0,2.2Z"/><path class="cls-6" d="M377.41,273.83h-8.24a1.1,1.1,0,1,1,0-2.19h8.24a1.1,1.1,0,1,1,0,2.19Z"/><path class="cls-6" d="M383.71,265.92H369.17a1.1,1.1,0,1,1,0-2.19h14.54a1.1,1.1,0,0,1,0,2.19Z"/><path class="cls-6" d="M377.41,258h-8.24a1.1,1.1,0,0,1,0-2.2h8.24a1.1,1.1,0,0,1,0,2.2Z"/><path class="cls-6" d="M377.41,250.11h-8.24a1.1,1.1,0,1,1,0-2.2h8.24a1.1,1.1,0,0,1,0,2.2Z"/><path class="cls-6" d="M377.41,242.2h-8.24a1.1,1.1,0,0,1,0-2.2h8.24a1.1,1.1,0,0,1,0,2.2Z"/><path class="cls-6" d="M377.41,234.29h-8.24a1.1,1.1,0,1,1,0-2.19h8.24a1.1,1.1,0,1,1,0,2.19Z"/><path class="cls-6" d="M383.71,226.38H369.17a1.1,1.1,0,1,1,0-2.19h14.54a1.1,1.1,0,0,1,0,2.19Z"/><path class="cls-6" d="M377.41,218.48h-8.24a1.1,1.1,0,0,1,0-2.2h8.24a1.1,1.1,0,0,1,0,2.2Z"/><path class="cls-6" d="M377.41,210.57h-8.24a1.1,1.1,0,0,1,0-2.2h8.24a1.1,1.1,0,0,1,0,2.2Z"/><path class="cls-6" d="M377.41,202.66h-8.24a1.1,1.1,0,1,1,0-2.19h8.24a1.1,1.1,0,1,1,0,2.19Z"/><path class="cls-6" d="M377.41,194.75h-8.24a1.1,1.1,0,1,1,0-2.19h8.24a1.1,1.1,0,1,1,0,2.19Z"/><path class="cls-6" d="M383.71,186.85H369.17a1.1,1.1,0,0,1,0-2.2h14.54a1.1,1.1,0,0,1,0,2.2Z"/><path class="cls-6" d="M377.41,178.94h-8.24a1.1,1.1,0,0,1,0-2.2h8.24a1.1,1.1,0,0,1,0,2.2Z"/><path class="cls-6" d="M377.41,171h-8.24a1.1,1.1,0,1,1,0-2.19h8.24a1.1,1.1,0,1,1,0,2.19Z"/><path class="cls-6" d="M375.23,163.12h-6.06a1.1,1.1,0,1,1,0-2.19h6.06a1.1,1.1,0,1,1,0,2.19Z"/><path class="cls-6" d="M373.71,155.22h-4.54a1.1,1.1,0,0,1,0-2.2h4.54a1.1,1.1,0,0,1,0,2.2Z"/><path class="cls-6" d="M373.89,147.31h-4.72a1.1,1.1,0,0,1,0-2.2h4.72a1.1,1.1,0,1,1,0,2.2Z"/><path class="cls-6" d="M377.41,139.4h-8.24a1.1,1.1,0,1,1,0-2.19h8.24a1.1,1.1,0,1,1,0,2.19Z"/><path class="cls-6" d="M377.41,123.59h-8.24a1.1,1.1,0,0,1,0-2.2h8.24a1.1,1.1,0,0,1,0,2.2Z"/><path class="cls-6" d="M377.41,131.18h-8.24a1.1,1.1,0,1,1,0-2.19h8.24a1.1,1.1,0,1,1,0,2.19Z"/><path class="cls-6" d="M377.41,115.68h-8.24a1.1,1.1,0,0,1,0-2.2h8.24a1.1,1.1,0,0,1,0,2.2Z"/><path class="cls-6" d="M383.71,107.77H369.17a1.1,1.1,0,1,1,0-2.19h14.54a1.1,1.1,0,0,1,0,2.19Z"/><path class="cls-6" d="M377.41,99.86h-8.24a1.1,1.1,0,1,1,0-2.19h8.24a1.1,1.1,0,1,1,0,2.19Z"/><path class="cls-6" d="M383.71,305.46H369.17a1.1,1.1,0,1,1,0-2.19h14.54a1.1,1.1,0,0,1,0,2.19Z"/><polygon class="cls-6" points="465.76 261.93 465.76 311.47 432.13 311.47 432.13 260.71 459.79 260.71 465.76 260.71 465.76 261.93"/><polygon class="cls-21" points="465.85 208.02 465.85 244.77 465.85 263.61 465.85 311.47 499.48 311.47 499.48 270.93 499.48 241.68 499.48 208.02 465.85 208.02"/><polygon class="cls-3" points="499.58 311.47 499.58 278.39 533.21 278.39 533.21 289.93 533.21 310.44 533.21 311.58 499.58 311.58 499.58 311.47"/><g class="cls-25"><path class="cls-3" d="M466.45,315.31a1.07,1.07,0,0,1-.78-.32,1.09,1.09,0,0,1,0-1.55l2.06-2.06a1.1,1.1,0,1,1,1.55,1.55L467.22,315A1.05,1.05,0,0,1,466.45,315.31Z"/><path class="cls-3" d="M447.32,315.31a1.05,1.05,0,0,1-.77-.32,1.09,1.09,0,0,1,0-1.55l21.18-21.18a1.1,1.1,0,1,1,1.55,1.55L448.1,315A1.07,1.07,0,0,1,447.32,315.31Z"/><path class="cls-3" d="M456.89,315.31a1.06,1.06,0,0,1-.78-.32,1.09,1.09,0,0,1,0-1.55l11.62-11.62a1.1,1.1,0,0,1,1.55,1.55L457.66,315A1.05,1.05,0,0,1,456.89,315.31Z"/><path class="cls-3" d="M437.76,315.31A1.05,1.05,0,0,1,437,315a1.09,1.09,0,0,1,0-1.55l30.74-30.74a1.1,1.1,0,0,1,1.55,1.55L438.54,315A1.09,1.09,0,0,1,437.76,315.31Z"/><path class="cls-3" d="M432.16,311.36a1.1,1.1,0,0,1-.78-1.87l36.35-36.35a1.1,1.1,0,1,1,1.55,1.55L432.93,311A1.09,1.09,0,0,1,432.16,311.36Z"/><path class="cls-3" d="M432.16,301.8a1.1,1.1,0,0,1-.78-1.88l36.35-36.34a1.1,1.1,0,0,1,1.55,1.55l-36.35,36.35A1.09,1.09,0,0,1,432.16,301.8Z"/><path class="cls-3" d="M432.16,292.24a1.1,1.1,0,0,1-.78-1.88L467.73,254a1.1,1.1,0,1,1,1.55,1.56l-36.35,36.35A1.09,1.09,0,0,1,432.16,292.24Z"/><path class="cls-3" d="M432.16,283.07a1.06,1.06,0,0,1-.78-.32,1.09,1.09,0,0,1,0-1.55l27.71-27.71a1.1,1.1,0,1,1,1.55,1.55l-27.71,27.71A1.05,1.05,0,0,1,432.16,283.07Z"/><path class="cls-3" d="M432.16,264a1.1,1.1,0,0,1-.78-1.87l8.59-8.59a1.1,1.1,0,1,1,1.55,1.55l-8.59,8.59A1.09,1.09,0,0,1,432.16,264Z"/><path class="cls-3" d="M432.16,273.51a1.1,1.1,0,0,1-.78-1.87l18.15-18.15a1.1,1.1,0,0,1,1.55,1.55l-18.15,18.15A1.09,1.09,0,0,1,432.16,273.51Z"/></g><polygon class="cls-12" points="432.03 311.35 432.03 249.77 413.74 249.77 398.2 249.77 398.2 311.35 432.03 311.35"/><path class="cls-16" d="M323.5,294.32a22.35,22.35,0,0,0-2.41,3.3H302.78a42.6,42.6,0,0,0-7.43-15.07,13.25,13.25,0,0,1,5-1.08C309.53,281.47,313.75,291.3,323.5,294.32Z"/><path class="cls-21" d="M349.66,297.62a9.88,9.88,0,0,1,.13,1.57c0,11.31-7.42,12.16-14.15,12.16h-51c-3.11-.59-13.74-1.29-15.22-13.73h80.21Z"/><path class="cls-4" d="M349.66,297.62H321.09a22.35,22.35,0,0,1,2.41-3.3,21.84,21.84,0,0,1,7.36-5.54,21.37,21.37,0,0,1,9-1.91c.32,0,.65,0,1,0C344.5,290.16,348.88,292.76,349.66,297.62Z"/><path class="cls-21" d="M340.84,286.89c-.33,0-.66,0-1,0a21.37,21.37,0,0,0-9,1.91c-13.6-1-15-16.17-30.31-15.55a20.55,20.55,0,0,0-10.93,3.61,28.37,28.37,0,0,0-10.89-5.24c1-1.64,1.61-2.65,1.64-2.71h59.44c-.46.75-4.17,6.25-4.17,7.93C335.64,281.46,338,284.37,340.84,286.89Z"/><path class="cls-1" d="M330.86,288.78a21.84,21.84,0,0,0-7.36,5.54c-9.75-3-14-12.85-23.13-12.85a13.25,13.25,0,0,0-5,1.08,32.57,32.57,0,0,0-5.73-5.71,20.55,20.55,0,0,1,10.93-3.61C315.84,272.61,317.26,287.82,330.86,288.78Z"/><path class="cls-4" d="M302.78,297.62H269.45a23.78,23.78,0,0,1-.17-3c0-6.36,6.36-17.81,9.45-23a28.37,28.37,0,0,1,10.89,5.24,32.57,32.57,0,0,1,5.73,5.71A42.6,42.6,0,0,1,302.78,297.62Z"/><path class="cls-3" d="M323.29,77.56c6.49,5.18,16.89,6.6,24.75,6.6a51.6,51.6,0,0,0,5.95-.34,20.21,20.21,0,0,0-5-7.7H283.39a11.08,11.08,0,0,1-2.48,4.3c-7.16,7.08-19,4.28-26.11,16.52-5.06,8.64-.36,19.61-6.62,27.93-2.76,3.67-9.56,7.56-15.6,13.57a36.42,36.42,0,0,0-9.69,15.46,34.7,34.7,0,0,0-1.42,10c0,8.74,2.71,16.87,8,22.09a20.08,20.08,0,0,0,4.86,3.56l.45.15c.35-1.1.75-2.18,1.19-3.27h0c5.89-14.59,18.58-27.84,38.32-34.27,1.68-.55,3.42-1.05,5.2-1.5,9.05-2.44,14.22-7.86,15.64-14.69a26.61,26.61,0,0,0,18,6.73,36.11,36.11,0,0,0,10.42-1.65L321,118.89c-.52,0-1.05.06-1.57.06-6.87,0-16.53-4.79-16.53-13.47C302.9,91.79,319.71,87.92,323.29,77.56Zm-36,37.85a32.28,32.28,0,0,0,.71,6.82c-9.24-1.91-12.1-7.91-12.1-14.71a14.4,14.4,0,0,1,14.35-14.61,9.51,9.51,0,0,1,3.78.85l.91.57C290.68,100.63,287.33,107.86,287.33,115.41Z"/><path class="cls-3" d="M349.67,89.39a30.48,30.48,0,0,0,5.66-.51c-.15-.84-.31-1.65-.51-2.43a25.27,25.27,0,0,0-.83-2.63,20.21,20.21,0,0,0-5-7.7H321.78C326.93,85.32,339.64,89.39,349.67,89.39Z"/><path class="cls-17" d="M296,138.85a1.1,1.1,0,0,1-.74-.28c-5.63-5.06-8.73-12.6-8.73-21.22,0-10.52,4.47-21.2,11.66-27.87a1.1,1.1,0,1,1,1.49,1.61c-6.76,6.27-10.95,16.33-10.95,26.26,0,8,2.84,15,8,19.59a1.09,1.09,0,0,1,.08,1.55A1.07,1.07,0,0,1,296,138.85Z"/><path class="cls-6" d="M336,277.43H322.24a1.1,1.1,0,1,1,0-2.19H336a1.1,1.1,0,1,1,0,2.19Z"/><path class="cls-6" d="M337.38,282.72H325.85a1.1,1.1,0,1,1,0-2.19h11.53a1.1,1.1,0,1,1,0,2.19Z"/><path class="cls-20" d="M362.51,248.9a46.18,46.18,0,0,1-15.66,7.82h0c4.27-8.71,7.37-18.29,7.37-27.88,0-10.43-3.69-20.54-10.81-26.63a39.35,39.35,0,0,1,3.71-2.29,36.75,36.75,0,0,1,9.5-3.67,38,38,0,0,1,8.81-1h1.07v73.62H353.82A67,67,0,0,1,362.51,248.9Z"/><path class="cls-14" d="M281.3,266.85a1.08,1.08,0,0,1-.55-.15,1.1,1.1,0,0,1-.39-1.5c7.85-13.38,20.72-22.68,31.35-22.68h.16a1.09,1.09,0,0,1,1.08,1.11,1.12,1.12,0,0,1-1.1,1.09h-.14c-11,0-23.14,10.83-29.46,21.59A1.11,1.11,0,0,1,281.3,266.85Z"/><path class="cls-3" d="M334,107.25l-.26,0a1.09,1.09,0,0,1-.8-1.32c1.35-5.59,6-11,11.53-10.37,4.07.47,6.6,4.22,6.77,10a1.1,1.1,0,0,1-1.06,1.13h0a1.09,1.09,0,0,1-1.09-1.07c-.14-4.69-1.9-7.57-4.83-7.9-3.36-.38-7.71,2.76-9.15,8.69A1.09,1.09,0,0,1,334,107.25Z"/><path class="cls-26" d="M348.16,83.74a24,24,0,0,1-11-2.59,1.1,1.1,0,1,1,1-2,22.48,22.48,0,0,0,13.19,2.15c.58-.07,1.17-.16,1.76-.27a1.1,1.1,0,1,1,.4,2.16c-.63.11-1.27.21-1.89.29A29.06,29.06,0,0,1,348.16,83.74Z"/><path class="cls-26" d="M268.06,158.77A1.11,1.11,0,0,1,267,158c-2.51-9.4-.77-18.88,4.67-25.37a1.08,1.08,0,0,1,1.54-.14,1.1,1.1,0,0,1,.14,1.55c-5,5.94-6.56,14.69-4.23,23.39a1.09,1.09,0,0,1-.77,1.34A1,1,0,0,1,268.06,158.77Z"/><path class="cls-26" d="M255.64,164a1.1,1.1,0,0,1-1-.77,42.91,42.91,0,0,1-2-12.87,41.05,41.05,0,0,1,5.48-20.73,32.11,32.11,0,0,1,8.43-9.62,1.1,1.1,0,0,1,1.31,1.76,30,30,0,0,0-7.85,9,38.87,38.87,0,0,0-5.17,19.62,40.43,40.43,0,0,0,1.86,12.21A1.11,1.11,0,0,1,256,164,1.26,1.26,0,0,1,255.64,164Z"/><path class="cls-26" d="M245,172.47a1.11,1.11,0,0,1-1-.61,42,42,0,0,1-4.39-18.67,39.49,39.49,0,0,1,4.61-18.67,1.1,1.1,0,0,1,1.93,1,37.41,37.41,0,0,0-4.35,17.63A39.67,39.67,0,0,0,246,170.88a1.09,1.09,0,0,1-.5,1.47A1,1,0,0,1,245,172.47Z"/><path class="cls-23" d="M275.62,185.63l-39.65.83c5.89-14.59,18.58-27.84,38.32-34.27,2.47,4.54,6.43,9.29,13.77,9.29,6.73,0,9.9-4.7,12.06-10.62,2,5.72,5.88,10.1,11.58,10.1a9.35,9.35,0,0,0,1.37-.11,15.41,15.41,0,0,0,8.75-4.51,28.45,28.45,0,0,0,11.06,2h.53l3,9.15,10.7,32.47a39.35,39.35,0,0,0-3.71,2.29,24.44,24.44,0,0,0-16.26-5.81,41.46,41.46,0,0,0-6.9.6,10,10,0,0,0-.62-1.28h0a8.22,8.22,0,0,0,5.25-7.55,7.39,7.39,0,0,0-1.86-4.93h0a16.18,16.18,0,0,1,3.28-.29c.84,0,.58,0,1.39,0,5.94,0,8.84-3.36,8.84-6.44,0-5.79-8.06-6.06-13.78-6.06-.18,0-1.22,0-2.92,0a8.65,8.65,0,0,0,.23-1.95,6.91,6.91,0,0,0-.74-3.16,4.76,4.76,0,0,0-4.49-2.7c-4.31,0-8,3.41-11.35,7.33a36.93,36.93,0,0,0-3,4.29,67.31,67.31,0,0,0-27.13,18l0,0C274.1,190.07,274.89,187.86,275.62,185.63Z"/><path class="cls-21" d="M236.08,186.46l39.25.3,5-15.07H244.82A56,56,0,0,0,236,186.46"/><path class="cls-21" d="M275.13,187a1.1,1.1,0,0,1-.4-.08,1.08,1.08,0,0,1-.62-1.42c2.53-6.44,5-13.32,5.46-20.5a1.08,1.08,0,0,1,1.16-1,1.09,1.09,0,0,1,1,1.16c-.44,7.5-3,14.57-5.61,21.17A1.1,1.1,0,0,1,275.13,187Z"/><path class="cls-21" d="M300.07,170a1.09,1.09,0,0,1-1.1-1.09V151.44a1.1,1.1,0,0,1,2.2,0v17.49A1.1,1.1,0,0,1,300.07,170Z"/><path class="cls-23" d="M325.58,189.76h-.07a1.1,1.1,0,0,1-1-1.17,5.84,5.84,0,0,0-1.75-4.75,10.11,10.11,0,0,0-7.78-2.35,1.09,1.09,0,1,1-.2-2.18,12.3,12.3,0,0,1,9.51,3,8,8,0,0,1,2.41,6.46A1.1,1.1,0,0,1,325.58,189.76Z"/><path class="cls-23" d="M320.62,196.88a1.11,1.11,0,0,1-1-.57c-1.73-3.24-6.13-4-9.49-3.36a1.1,1.1,0,1,1-.42-2.15c5.92-1.15,10.22,1.42,11.85,4.47a1.09,1.09,0,0,1-.45,1.48A1.06,1.06,0,0,1,320.62,196.88Z"/><path class="cls-5" d="M280.28,281.51c2.25,4.32,2.77,8.23,1.11,11.15l0,.07c-4.67,8-24.09,5.46-43.44-5.67s-31.31-26.71-26.69-34.74v0a9.43,9.43,0,0,1,.56-.84c5-6.32,20.77-4.68,37.54,3.63,1.78.88,3.56,1.84,5.34,2.86a95.11,95.11,0,0,1,9.06,5.92,80.93,80.93,0,0,1,7,5.79h0A46.22,46.22,0,0,1,280.28,281.51Z"/><path class="cls-27" d="M281.36,292.73l-4.72,8.18-3.14,5.46c-2.42,4.2-8.89,5.51-17.29,4.21-7.66-1.18-16.92-4.54-26.16-9.86-1.84-1.06-3.62-2.16-5.32-3.29-16.17-10.75-25.56-24.18-21.37-31.45l7.87-13.66c-4.62,8,7.33,23.58,26.69,34.74S276.69,300.73,281.36,292.73Z"/><g class="cls-28"><path class="cls-29" d="M249.28,319.55l15.86-26.81c3.09-4.55,15.9-12.65,23.3-10.81,5.36,1.34,6.06,7.75,4.77,12.68C289.4,309.15,267,324,250.75,320,250.25,319.85,249.76,319.71,249.28,319.55Z"/><path class="cls-30" d="M259.11,312.53l9.16-16.31c1.78-2.77,9.09-7.75,13.27-6.68,3,.77,3.39,4.64,2.62,7.63-2.25,8.81-15.06,17.95-24.22,15.61Z"/><path class="cls-29" d="M207.52,284.11l9.7-17.28c-1.85-3.24-.15-18-5-19.23-3.16-.81-11.31,5.59-13.74,15.11-3,11.66,3.93,21.86,6.63,22.55A2.24,2.24,0,0,0,207.52,284.11Z"/><path class="cls-30" d="M247.52,313.57a1.06,1.06,0,0,1-.54-.14,1.11,1.11,0,0,1-.42-1.49l11.07-19.71a1.1,1.1,0,1,1,1.91,1.08L248.48,313A1.1,1.1,0,0,1,247.52,313.57Z"/><path class="cls-29" d="M243.21,312.15a1.17,1.17,0,0,1-.54-.14,1.11,1.11,0,0,1-.42-1.5l11.07-19.7a1.09,1.09,0,0,1,1.91,1.07l-11.06,19.71A1.1,1.1,0,0,1,243.21,312.15Z"/><path class="cls-29" d="M225.21,305.77a1.06,1.06,0,0,1-.54-.14,1.11,1.11,0,0,1-.42-1.49l11.07-19.71a1.1,1.1,0,1,1,1.91,1.08l-11.06,19.7A1.1,1.1,0,0,1,225.21,305.77Z"/><path class="cls-29" d="M215.75,297.07a1,1,0,0,1-.54-.15,1.09,1.09,0,0,1-.42-1.49l11.06-19.7a1.1,1.1,0,0,1,1.5-.42,1.09,1.09,0,0,1,.42,1.49L216.7,296.5A1.09,1.09,0,0,1,215.75,297.07Z"/><path class="cls-29" d="M212.31,294.09a1,1,0,0,1-.53-.14,1.09,1.09,0,0,1-.42-1.49l11.06-19.71a1.1,1.1,0,1,1,1.92,1.08l-11.07,19.7A1.09,1.09,0,0,1,212.31,294.09Z"/><path class="cls-29" d="M208.62,291.22a1.17,1.17,0,0,1-.54-.14,1.11,1.11,0,0,1-.41-1.5l11.06-19.7a1.09,1.09,0,0,1,1.91,1.07l-11.06,19.71A1.09,1.09,0,0,1,208.62,291.22Z"/></g><path class="cls-27" d="M244.24,273.24a24.05,24.05,0,0,1-12-3.91c-4-2.53-6.39-5.51-6.37-8a3.49,3.49,0,0,1,1.75-3c3.23-2,9.68-.37,14.39,2.21a1.1,1.1,0,0,1-1.06,1.93c-5.23-2.87-10.3-3.4-12.18-2.26a1.24,1.24,0,0,0-.7,1.13c0,1.36,1.64,3.79,5.34,6.12,5.42,3.42,11.35,4.32,13.48,3a1.13,1.13,0,0,1,1.54.34,1.08,1.08,0,0,1-.33,1.5l-.07,0A7.39,7.39,0,0,1,244.24,273.24Z"/><path class="cls-27" d="M263.5,285.42a23.87,23.87,0,0,1-10.59-3.08,1.11,1.11,0,0,1-.43-1.5,1.1,1.1,0,0,1,1.49-.43c5.23,2.87,10.3,3.41,12.19,2.26a1.25,1.25,0,0,0,.69-1.13c0-1.36-1.63-3.79-5.34-6.12-5.42-3.42-11.35-4.32-13.48-3a1.12,1.12,0,0,1-1.53-.33,1.07,1.07,0,0,1,.31-1.5l.08-.05c3.13-1.91,10.07-.57,15.79,3,4,2.53,6.39,5.52,6.37,8a3.47,3.47,0,0,1-1.75,3A7.35,7.35,0,0,1,263.5,285.42Z"/><path class="cls-27" d="M273.2,288.47a1,1,0,0,1-.58-.17l-50-31.51a1.09,1.09,0,1,1,1.17-1.85l50,31.51a1.09,1.09,0,0,1-.59,2Z"/><path class="cls-26" d="M318.26,133c-10.8,0-18.63-7.13-20.44-18.62a1.09,1.09,0,0,1,.91-1.25A1.1,1.1,0,0,1,300,114c1.63,10.34,8.63,16.77,18.27,16.77a22.93,22.93,0,0,0,4.39-.44,1.1,1.1,0,1,1,.42,2.15A24.9,24.9,0,0,1,318.26,133Z"/><path class="cls-13" d="M414,87.28c-3.06-6.81-7.46-13.18-7.46-20.55a18.58,18.58,0,0,1,.29-3.28,17.25,17.25,0,0,1,32.8-3.78l8.78,20.27-.73.31L416.85,93.88Z"/><path class="cls-23" d="M30.09,311a4.38,4.38,0,0,1-4-4.6,45.87,45.87,0,0,1,5.19-19.12c3.24-6.12,8.05-11.41,13.13-16.26,2.4-2.29,4.56-4.33,6.56-6.29a82.76,82.76,0,0,0,16.09-20.62,60.85,60.85,0,0,1,6.3,5.27h0c-.31.68-.63,1.33-.94,1.91-11.87,22.48-26.33,25.95-35,42.39-.08.14-.15.28-.22.43a36.43,36.43,0,0,0-4.07,17l-.58,0C31.73,311.05,30.92,311,30.09,311Z"/><path class="cls-31" d="M41.75,306.34A11.47,11.47,0,0,1,33.1,311a36.43,36.43,0,0,1,4.07-17,18.28,18.28,0,0,1,2.22,1.83,21,21,0,0,1,4.81,7.38C43.31,304.29,42.49,305.33,41.75,306.34Z"/><path class="cls-15" d="M44.2,303.27a21,21,0,0,0-4.81-7.38,18.28,18.28,0,0,0-2.22-1.83c.07-.15.14-.29.22-.43,8.69-16.44,23.15-19.91,35-42.39.31-.58.63-1.23.94-1.91h0c5.92,5.55,11.24,11.8,18.35,15.55a26.82,26.82,0,0,0,3.13,1.43l-1.61,3c-6.42-1.89-16.34-3.63-18.06-.37-1.84,3.47,5.16,9.81,10.71,14.27l-2.28,4.32c-11-5-27.31-6.82-33.56,5a20.15,20.15,0,0,0-2.14,7A37.79,37.79,0,0,0,44.2,303.27Z"/><path class="cls-32" d="M47.89,299.58a20.15,20.15,0,0,1,2.14-7c6.25-11.82,22.55-10,33.56-5l-4.17,7.9C64.73,289.82,54.69,293.71,47.89,299.58Z"/><path class="cls-31" d="M93.22,269.35l-7.35,13.9c-5.55-4.46-12.55-10.8-10.71-14.27C76.88,265.72,86.8,267.46,93.22,269.35Z"/><path class="cls-13" d="M51,264.68l-6.34-3.35c.65-1.35,1.3-2.63,2-3.87a73.47,73.47,0,0,1,12.69-17.69,33.86,33.86,0,0,1,3.46,1.6,36.05,36.05,0,0,1,4.33,2.69A82.76,82.76,0,0,1,51,264.68Z"/><path class="cls-1" d="M414.13,69.08c0-.31,0-.62.05-.93h0l-7.49-1-29-3.78L200.07,41l-1.74,13.22L231,58.43h0l-28.88,41.78h0q.35,0,.72,0c4.43,0,8.48,1.85,12.09,4.94l5-7.19h0l25.91-37.5c-1.61-.78,166.45,20.93,166.45,20.93l9,1.16.61-4.67h0A8.82,8.82,0,0,1,414.13,69.08Z"/><path class="cls-18" d="M247.59,50.64a8.69,8.69,0,0,0-3.68.8A8.82,8.82,0,0,0,238.76,59c0,.17,0,.35,0,.53a8.84,8.84,0,0,0,17.5,1.74,8.35,8.35,0,0,0,.18-1.74A8.84,8.84,0,0,0,247.59,50.64Z"/><path class="cls-5" d="M170.87,190.52c0,4.23-2,9.21-7.11,12.92L166,211.9c-16,1.8-24.55,10.87-28.62,18.21h0a52.12,52.12,0,0,0-7.75-1.68l3-4.32L164,178.7A14.16,14.16,0,0,1,170.87,190.52Z"/><path class="cls-31" d="M176.06,226.06c-6-4,.81-6.9-8.5-6.9-2.06,0,.28-7.47-1.56-7.26l-2.24-8.46c5.07-3.71,7.11-8.69,7.11-12.92A14.16,14.16,0,0,0,164,178.7l6.79-9.83a59,59,0,0,1,11.6,14.4c7.58-18.19,10.7-25.44,12-29.37h41S238.78,205.85,176.06,226.06Z"/><g class="cls-33"><path class="cls-32" d="M244.66,155.09c-4.63,4.87-9.41,6.4-14.15,6.4-7.92,0-15.72-4.26-22.52-4.26-4.31,0-9.45,2-9.48,7v0c0,4,3.58,4.7,7.75,4.7,2.41,0,5-.25,7.24-.25s5.19.16,5.19,2.32c0,1.59-1.25,3.84-1.25,5.73,0,2.86,21.4,8.17,21.92,8.17,2.76,0,6.89-3.13,6.89-8.35,0-6-4-13.41-4-17.53a3,3,0,0,1,.89-2.41"/><path class="cls-32" d="M155.83,185.62c-3.45-1.74-4.83-5-4.83-8.68,0-11.72,9.11-21.57,23.92-21.57s9.15,9.63,15.59,14.27c3.39,2.44,10.76.32,10.76,6.58,0,.92-.12,1.86-.12,2.76,0,6.25,15.16,4.51,15.16,10.7,0,2.07-3.12,5.52-6.46,5.52-4.93,0-10-6.08-14.94-6.08-2,0-4.33,1-4.33,3.39,0,1.9,1.18,4.25,1.18,6.42,0,3.72-4.36,5.4-7.53,5.4a8.49,8.49,0,0,1-3.31-.64C171.31,199.64,165.51,190.49,155.83,185.62Z"/><path class="cls-32" d="M222.72,201.34a11.88,11.88,0,0,1-6.4,1.84c-4.84,0-9.33-2.63-13.72-2.63-5.13,0-9.83,4.49-9.83,9.5,0,6.39,7,12.73,14.55,12.73C219.58,222.78,219.11,210.57,222.72,201.34Z"/></g><circle class="cls-5" cx="155.3" cy="190.51" r="15.52"/><path class="cls-4" d="M155.79,267.23a50,50,0,0,1-.32,5.62h49.18c-2.17-55.69-31.52-89.13-73.78-42.54h0c10.52,3.35,18.46,10.4,22.32,21A46.3,46.3,0,0,1,155.79,267.23Z"/><path class="cls-1" d="M123.21,308.57a3.86,3.86,0,0,0-3.85-3.85H57a3.85,3.85,0,0,0,0,7.7h62.37A3.85,3.85,0,0,0,123.21,308.57Z"/><path class="cls-20" d="M430.61,120.38a17.15,17.15,0,0,1-5.2-6.72l-2.14-5-6.42-14.82,30.82-13.63.73-.31,4.82,11.14,3.84,8.88a17.23,17.23,0,0,1-26.45,20.42Z"/><path class="cls-6" d="M423.9,57.71a10.14,10.14,0,1,1,0,20.27,8.8,8.8,0,0,1-1.36-.1,10.13,10.13,0,0,1-8.77-10,9.28,9.28,0,0,1,.06-1.06A10.12,10.12,0,0,1,423.9,57.71Z"/><path class="cls-21" d="M222.61,98.67c2.5,1.41,3.3,3.71,3.3,6.33,0,3.81-1.51,7.64-2.17,11.4a42.2,42.2,0,0,0-8.86-11.28l5-7.19H220A5.39,5.39,0,0,1,222.61,98.67Z"/><path class="cls-23" d="M186.25,123.56h0a6.67,6.67,0,0,1-1.21-4c0-4.16,3.81-8.1,8.29-8.82h0a9.07,9.07,0,0,1-.07-1.19,9.43,9.43,0,0,1,8.81-9.35q.35,0,.72,0c5.76,0,32.62,4.79,32.62,53.72h-41a14.61,14.61,0,0,0,.87-5.33c0-4.34-2.14-6.54-4.77-8.14-4.08-2.5-9.3-3.55-9.3-9a9,9,0,0,1,.06-1A8.68,8.68,0,0,1,186.25,123.56Z"/><path class="cls-1" d="M158.88,162.67l22.35-32.33h0a9,9,0,0,0-.06,1c0,5.49,5.22,6.54,9.3,9L170.8,168.87,164,178.7l-31.4,45.41-.77-.53a10,10,0,0,0,1.62-5.43,5.79,5.79,0,0,0-1-3.3h0a10.3,10.3,0,0,0,4.52-8.07,7.18,7.18,0,0,0-1.65-4.66,11.49,11.49,0,0,0,1.24-4.89,7.46,7.46,0,0,0-.26-2Z"/><path class="cls-12" d="M163.31,144.6A26.48,26.48,0,0,1,148.5,149a25.25,25.25,0,0,1-5.9-.68,20.89,20.89,0,0,1-14.3-11h.17a9.06,9.06,0,0,0,9.05-8.36h0c6.93-2.78,14.31-11.44,14.31-19.65A12.31,12.31,0,0,0,139.4,96.77,12.84,12.84,0,0,0,132.14,99V59.12c.11-9.63,4.84-27.11,17-27.11,6.58,0,4.5,5.06,8.19,5.06,2.18,0,4.31-1.24,6.65-1.24,2.51,0,5.65,1.84,5.65,4.57,0,1.51-.76,3-.76,4.3,0,1.58,1.1,2.14,2.71,2.14,1,0,2.14-.15,3.34-.15,4.6,0,6.67,3.23,6.67,6.82,0,15-23.26,10.73-37.54,16.09,18.54,4.7,32.72,25.73,32.72,46.5,0,1.52-.07,3-.21,4.43a36.76,36.76,0,0,1-3.82,13.38h0a28.27,28.27,0,0,1-9.41,10.69Z"/><path class="cls-5" d="M84.88,202.15l21.25,31.25h0c-9.59,7.31-19.74,19.19-33.9,20-.5,0-1,0-1.5,0-15.93,0-34.54-13.07-34.54-40.62,0-29.8,23.74-53.4,51-53.4.64,0,1.29,0,1.93,0,10.85,10.09,21.8,24.21,38.6,24.21A23.1,23.1,0,0,0,136.4,182c8.56-3.42,15.08-11.53,18.57-19.55l.85,0a17.41,17.41,0,0,1,3.06.27l-22.53,32.58c-1.32-4.93-7.6-7.49-14.37-7.49C112.13,187.76,98.35,192.21,84.88,202.15Z"/><path class="cls-23" d="M87.15,116H76.86c.09-.68.19-1.37.28-2.05-3.52-.08-4.86-3.32-4.86-5.38,0-2.65,2.41-4.75,5.71-5.46l-.09-.35a15.25,15.25,0,0,0,2.93.3h0a17.84,17.84,0,0,0,5.85-1.45c4.22-1.91,6.15-5.35,6.15-8.88a11.48,11.48,0,0,0-5.17-9.28A15.12,15.12,0,0,0,79,80.92a17.39,17.39,0,0,0-4.08.46c0-.62,0-1.22.09-1.81h41.32c1.74,12.93,6.81,25.51,15.83,34.33V99a12.84,12.84,0,0,1,7.26-2.24,12.31,12.31,0,0,1,12.44,12.52c0,8.21-7.38,16.87-14.31,19.65h0c0-.23,0-.48,0-.72a9.08,9.08,0,1,0-9.25,9.08,20.89,20.89,0,0,0,14.3,11h0l5.66,15.8a17.75,17.75,0,0,1,6.71-1.73c-3.49,8-10,16.13-18.57,19.55a23.1,23.1,0,0,1-8.65,1.69c-16.8,0-27.75-14.12-38.6-24.21a47.86,47.86,0,0,1,9.1,1.25l3.23-11.17h0a36.14,36.14,0,0,1-8.91,1.27c-12.18,0-17.12-9.29-17.12-21.31A59.75,59.75,0,0,1,76,121.8h0A24.85,24.85,0,0,0,87.15,116Z"/><path class="cls-5" d="M137.55,128.22c0,.24,0,.49,0,.72a9.06,9.06,0,0,1-9.05,8.36h-.17a9.08,9.08,0,1,1,9.25-9.08Z"/><path class="cls-23" d="M132.49,214.85a5.79,5.79,0,0,1,1,3.3,10,10,0,0,1-1.62,5.43c-1.54,2.3-4.38,4.18-9.32,4.18-1.12,0-2.27,0-3.41,0a15,15,0,0,0-6.22,1.47,35.45,35.45,0,0,0-6.76,4.21L84.88,202.15c13.47-9.94,27.25-14.39,37.1-14.39,6.77,0,13,2.56,14.37,7.49a7.46,7.46,0,0,1,.26,2,11.49,11.49,0,0,1-1.24,4.89,7.18,7.18,0,0,1,1.65,4.66,10.3,10.3,0,0,1-4.52,8.07Z"/><path class="cls-16" d="M132.14,99V113.9c-9-8.82-14.09-21.4-15.83-34.33a76.82,76.82,0,0,1-.25-18.65h16.08Z"/><path class="cls-12" d="M91.13,79.57H75a37.15,37.15,0,0,1,1.41-8c3.48-11.76,11.33-18.09,23.94-18.09,5.86,0,12.65,2.19,15.75,7.16h0l0,.29a76.82,76.82,0,0,0,.25,18.65H91.13Z"/><path class="cls-22" d="M116.09,60.63c.06.1.12.19.17.29h-.2Z"/><path class="cls-3" d="M92.84,92.73c0,3.53-1.93,7-6.15,8.88h0A9.53,9.53,0,0,1,81.29,93a10.88,10.88,0,0,1,6.38-9.52A11.48,11.48,0,0,1,92.84,92.73Z"/><path class="cls-8" d="M86.69,101.6h0a17.84,17.84,0,0,1-5.85,1.45h0a15.25,15.25,0,0,1-2.93-.3,81.66,81.66,0,0,1-3-20.14c0-.42,0-.84,0-1.25A17.39,17.39,0,0,1,79,80.92a15.12,15.12,0,0,1,8.69,2.53A10.88,10.88,0,0,0,81.29,93,9.53,9.53,0,0,0,86.69,101.6Z"/><path class="cls-14" d="M76.86,116H87.15A24.85,24.85,0,0,1,76,121.8C76.28,119.87,76.58,118,76.86,116Z"/><path class="cls-16" d="M72.23,253.39c14.16-.79,24.31-12.67,33.9-20h0a35.45,35.45,0,0,1,6.76-4.21l-25.38,36.7c-2.3-6-7.3-11.89-14.28-11.89l-1,0Z"/><path class="cls-11" d="M137.31,205a1.11,1.11,0,0,1-1-.72c-1.78-4.92-8.08-4.67-11.52-3.75a1.1,1.1,0,0,1-.57-2.12c5.59-1.49,12.13-.49,14.16,5.12a1.1,1.1,0,0,1-.66,1.41A1.19,1.19,0,0,1,137.31,205Z"/><path class="cls-11" d="M133.93,217.15a1.1,1.1,0,0,1-1-.72c-1.78-4.92-8.08-4.67-11.52-3.75a1.1,1.1,0,1,1-.57-2.12c5.58-1.5,12.12-.5,14.15,5.12a1.1,1.1,0,0,1-.66,1.41A1.15,1.15,0,0,1,133.93,217.15Z"/><path class="cls-21" d="M101.26,151.41a1.11,1.11,0,0,1-1.08-.88,1.1,1.1,0,0,1,.86-1.29l.93-.2c1-.22,8-2.89,11.24-6.6a1.1,1.1,0,1,1,1.65,1.44c-3.59,4.13-11.16,7-12.43,7.31l-1,.2Z"/><path class="cls-24" d="M161.26,145.8c-6.6,0-14.52-3.67-18.43-8.53a1.1,1.1,0,0,1,1.71-1.38c3.54,4.4,10.72,7.71,16.72,7.71.62,0,1.27,0,2-.09a1.09,1.09,0,0,1,1.19,1,1.11,1.11,0,0,1-1,1.2C162.66,145.76,162,145.8,161.26,145.8Z"/><path class="cls-24" d="M172.74,135h-.06c-10-.46-17-4.48-21.64-12.31a1.1,1.1,0,0,1,1.89-1.11c4.21,7.13,10.7,10.81,19.85,11.22a1.1,1.1,0,0,1,0,2.2Z"/><path class="cls-24" d="M176.55,121.63h-.07a17.61,17.61,0,0,1-11.55-5.19,1.1,1.1,0,0,1,0-1.56,1.09,1.09,0,0,1,1.55,0,15.51,15.51,0,0,0,10.15,4.57,1.09,1.09,0,0,1,1,1.16A1.1,1.1,0,0,1,176.55,121.63Z"/><path class="cls-24" d="M91.13,80.66a1.1,1.1,0,0,1-1.07-.85,13.9,13.9,0,0,1-.32-3.07c0-7.08,4.68-15,11.31-14.63a1.1,1.1,0,0,1-.12,2.19h-.31c-5,0-8.69,6.56-8.69,12.44a12,12,0,0,0,.27,2.59,1.1,1.1,0,0,1-.83,1.31A1,1,0,0,1,91.13,80.66Z"/><path class="cls-24" d="M102.52,80.66a1.09,1.09,0,0,1-1.08-.89,11.79,11.79,0,0,1-.2-2.12,9.28,9.28,0,0,1,3.38-7.35A1.1,1.1,0,1,1,106,72a7.1,7.1,0,0,0-2.57,5.65,9.26,9.26,0,0,0,.16,1.72,1.1,1.1,0,0,1-.88,1.28Z"/><path class="cls-16" d="M154.55,257a1.1,1.1,0,0,1-1-1.59,42.75,42.75,0,0,1,10.75-13.73c5.46-4.48,11.46-6.66,17.84-6.47a1.1,1.1,0,0,1-.07,2.2c-12.36-.39-21.87,9.62-26.55,19A1.1,1.1,0,0,1,154.55,257Z"/><path class="cls-16" d="M176.88,243a1.1,1.1,0,0,1-.32-2.15,24.3,24.3,0,0,1,4.49-.9,1.1,1.1,0,1,1,.23,2.18,22.35,22.35,0,0,0-4.08.82A.93.93,0,0,1,176.88,243Z"/><path class="cls-16" d="M167.26,248.38a1.07,1.07,0,0,1-.82-.37,1.09,1.09,0,0,1,.1-1.55,28,28,0,0,1,4-3,1.1,1.1,0,0,1,1.13,1.88,26.3,26.3,0,0,0-3.72,2.73A1.08,1.08,0,0,1,167.26,248.38Z"/><path class="cls-21" d="M93.67,125.25a1.06,1.06,0,0,1-.34-.06,10.18,10.18,0,0,1-7.23-9.63,9.14,9.14,0,0,1,5.79-8.49,1.1,1.1,0,1,1,.88,2,6.93,6.93,0,0,0-4.47,6.48A8,8,0,0,0,94,123.1a1.1,1.1,0,0,1-.34,2.15Z"/><path class="cls-21" d="M202,116.19a1.1,1.1,0,0,1-.89-.45c-1.92-2.62-4.36-4-7.07-4q-.33,0-.66,0a1.1,1.1,0,0,1-.18-2.19q.42,0,.84,0c2.4,0,5.88.85,8.84,4.9a1.1,1.1,0,0,1-.24,1.54A1.09,1.09,0,0,1,202,116.19Z"/><path class="cls-20" d="M377.68,64.45a1.1,1.1,0,0,1-.17-2.19,17.16,17.16,0,0,0,3.14-.8c6-2.24,8.61-5.78,8.61-11.81,0-.6,0-1.19,0-1.77s0-1.2,0-1.79a13.1,13.1,0,0,1,4.07-9.87,13.26,13.26,0,0,1,9-3.48c8.61,0,10.3,7,11.8,13.16.42,1.73.85,3.51,1.41,5.14a1.1,1.1,0,1,1-2.08.72c-.59-1.73-1-3.57-1.47-5.34-1.49-6.16-2.78-11.48-9.66-11.48-5.38,0-10.84,3.83-10.84,11.15,0,.57,0,1.15,0,1.72s0,1.22,0,1.84c0,6.92-3.19,11.32-10,13.86a18.45,18.45,0,0,1-3.55.92Z"/><path class="cls-21" d="M136.4,183.07a1.1,1.1,0,0,1-1-.55c-2-3.58-4.87-6.18-9.38-9.71a1.1,1.1,0,1,1,1.35-1.73c3.85,3,7.5,6.07,9.93,10.35a1.1,1.1,0,0,1-.41,1.5A1.06,1.06,0,0,1,136.4,183.07Z"/><path class="cls-21" d="M195.92,130.87a1.1,1.1,0,0,1-1-.58c-2.26-4.17-5.66-6.53-8.56-5.84a1.1,1.1,0,1,1-.51-2.13,6.8,6.8,0,0,1,1.56-.19c3.5,0,7,2.66,9.44,7.11a1.09,1.09,0,0,1-.44,1.49A1.07,1.07,0,0,1,195.92,130.87Z"/><circle class="cls-21" cx="96.78" cy="114.94" r="0.9"/><circle class="cls-21" cx="101.92" cy="118.58" r="0.9"/><circle class="cls-21" cx="102.38" cy="112.88" r="0.9"/><path class="cls-1" d="M132.61,224.11l-3,4.32-27.88,40.31-19,27.5-11.08,16-11-7.59L64,299.88l23.5-34,25.38-36.7a15,15,0,0,1,6.22-1.47c1.14,0,2.29,0,3.41,0,4.94,0,7.78-1.88,9.32-4.18Z"/><path class="cls-32" d="M89.15,159.45c-.64,0-1.29,0-1.93,0-27.29,0-51,23.6-51,53.4,0,27.55,18.61,40.62,34.54,40.62.5,0,1,0,1.5,0,14.16-.79,24.31-12.67,33.9-20h0L84.88,202.15a80.26,80.26,0,0,1,21.69-11.55C106.49,184.52,107.55,167.36,89.15,159.45Z"/><g class="cls-34"><path class="cls-31" d="M68.8,149.8a16.62,16.62,0,0,0-2,6.95c0,10.56,21.55,3.6,21.55,11.12,0,3.4-4.8,6.68-4.8,10.08,0,6.11,12.39,4.33,12.39,10.92,0,3.95-3,5.4-6.91,5.4-12.71,0-11.5-14.2-20-14.2-4.32,0-9.84,3.25-14.74,3.25-7.38,0-10-9-10-12.84C44.21,158.44,65.09,158.74,68.8,149.8Z"/><path class="cls-31" d="M113.23,182.53c-.78-9.06-4.91-12.13-9.13-12.13-4.92,0-10,4.19-10,7.88,0,4.45,6.88,5.51,11.35,5.51A38,38,0,0,0,113.23,182.53Z"/><path class="cls-31" d="M83.41,203.8l0,.47c-.9.65-4.13,4-5.31,4,0,0-7.39-9.81-10-11.22.56-2.51,3.8-3.64,6.41-3.64,4.61,0,9,4.47,9,9.43C83.46,203.19,83.44,203.5,83.41,203.8Z"/><path class="cls-31" d="M56.42,199.49c-7-5.8-5.63-14.75-13.35-14.75a8.62,8.62,0,0,0-5.42,2.17c-7.78,6.38-20.31,15.33-21.58,31.39-.65,8.35,3.37,19.65,11,20.25,1.25.1,4.49-10.83,16.12-9.91,6.74.53,14,5.69,21.08,6.25,11.91.94,16.67-10.13,24.64-9.51,2.16.17,3.83,1.1,5.87,1.27,2.76.21,7.33-1.66,7.54-4.26.11-1.5-.8-2.71-3.13-2.9s-5.34.56-7.14.42c-4.68-.37-5.65-6.89-13.59-7.52-3.71-.29-7.38.66-11,.38-5-.4-7.63-3.49-8.19-6.92S57.61,200.49,56.42,199.49ZM61,223.7c-3.11,0-5.51-5-9-5-1.3,0-2.58.46-3.84.45-5.47,0-3-7.17-4.9-10a6.76,6.76,0,0,1-1.21-3.73c0-2.43,1.59-4.33,3.89-4.33,7.19,0,6,10.11,9.17,13.72,2.28,2.58,8.31,2.35,8.3,6.72A2.18,2.18,0,0,1,61,223.7Z"/><path class="cls-31" d="M40.32,240A5.81,5.81,0,0,1,46,235.94c4.85,0,7.91,5.19,12.75,5.19,3.2,0,10.95-4,16.61-4,3.55,0,5.09,2,5.09,3.51,0,4.17-15.36.9-15.36,5,0,2.41,2.73,2.92,5.12,2.92,5.39,0,13.63-2.38,17.13-2.38,2.67,0,4.87,2.09,4.87,4,0,5.52-14,5.72-20.45,5.72C48.22,256,46.44,245.72,40.32,240Z"/><path class="cls-31" d="M106.7,228.12c-6.57,3.09-18.81,1.38-18.81,9.21,0,4.87,10.44,5.79,11.61,5.79,5.19,0,9.25-8.71,9.25-11C108.75,230.67,107.56,229.43,106.7,228.12Z"/></g><path class="cls-31" d="M76.32,211.21a1.11,1.11,0,0,1-.81-.36,1.09,1.09,0,0,1,.07-1.55,94.61,94.61,0,0,1,8.76-7.09A1.1,1.1,0,0,1,85.61,204a93.05,93.05,0,0,0-8.55,6.92A1.12,1.12,0,0,1,76.32,211.21Z"/><path class="cls-31" d="M78,209.55a1.12,1.12,0,0,1-1-.64c-2.89-6.38-9.73-13.44-17.18-14.61a1.09,1.09,0,1,1,.34-2.16c8.22,1.28,15.7,9,18.84,15.86a1.09,1.09,0,0,1-.54,1.45A1.06,1.06,0,0,1,78,209.55Z"/><path class="cls-23" d="M238.57,300.62a4.5,4.5,0,0,1-2.5,6,55.25,55.25,0,0,1-22,4.61c-7.87,0-11.37-1.9-19-4.25-3.57-1.12-6.78-2.13-9.82-3-9.57-2.85-17.38-4.6-29.29-4.86a62.52,62.52,0,0,1,1.95-8.52h0c.86,0,1.67-.07,2.43-.07,28.92,0,35.72,11.83,56.87,11.83h.55a44,44,0,0,0,19.24-4.59c.11.17.22.35.32.53C237.8,299,238.2,299.81,238.57,300.62Z"/><path class="cls-31" d="M227.75,292a13.11,13.11,0,0,1,9.31,5.78,44,44,0,0,1-19.24,4.59,18.62,18.62,0,0,1,.66-3,21.92,21.92,0,0,1,4.87-8.16C224.85,291.53,226.33,291.78,227.75,292Z"/><path class="cls-15" d="M217.67,289.57a24.18,24.18,0,0,1-8.19,1.46c-13.54,0-16.09-12.81-18-24.67h-7c-1.61,6.39-4,12.81-7.68,12.81-3.38,0-6.33-6.61-8.13-12.81h-4.79c-.17,8.28-3.51,16.15-5.89,24.23h0c.86,0,1.67-.07,2.43-.07,28.92,0,35.72,11.83,56.87,11.83h.55a18.62,18.62,0,0,1,.66-3,21.92,21.92,0,0,1,4.87-8.16A44.66,44.66,0,0,1,217.67,289.57Z"/><path class="cls-32" d="M204.29,266.36H191.47c1.92,11.86,4.47,24.67,18,24.67a24.18,24.18,0,0,0,8.19-1.46C209,286.42,205.53,277.7,204.29,266.36Z"/><path class="cls-31" d="M168.65,266.36c1.8,6.2,4.75,12.81,8.13,12.81,3.64,0,6.07-6.42,7.68-12.81Z"/><path class="cls-13" d="M185.31,304v7.61c-1.7.05-3.33.08-4.92.08a88.85,88.85,0,0,1-24.54-3.13,34.09,34.09,0,0,1-.24-4,36.94,36.94,0,0,1,.41-5.38C167.93,299.37,175.74,301.12,185.31,304Z"/><path class="cls-16" d="M101.75,268.74l27.88-40.31a52.12,52.12,0,0,1,7.75,1.68c11.16,3.37,19.59,10.45,23.69,21.09a44.32,44.32,0,0,1,2.75,16,47.29,47.29,0,0,1-9.42,28.32,43.58,43.58,0,0,1-8.69,8.68,41.17,41.17,0,0,1-24.91,8.21c-14.38,0-28-4.65-38.06-16.17Z"/><path class="cls-4" d="M119.72,275a32.17,32.17,0,0,1-17.22-5,1.1,1.1,0,0,1,1.18-1.85,30,30,0,0,0,16,4.65,23.88,23.88,0,0,0,9.7-2l1.59-.57a1.1,1.1,0,0,1,.73,2.07l-1.56.57A26.11,26.11,0,0,1,119.72,275Z"/><path class="cls-4" d="M94.52,300a1.1,1.1,0,0,1-.66-.23,43.69,43.69,0,0,1-5-4.52,1.1,1.1,0,0,1,1.59-1.52,40.27,40.27,0,0,0,4.78,4.3,1.11,1.11,0,0,1,.21,1.54A1.12,1.12,0,0,1,94.52,300Z"/><path class="cls-4" d="M104.89,305.72a1,1,0,0,1-.38-.07,40.15,40.15,0,0,1-7.11-3.44,1.1,1.1,0,0,1,1.15-1.87,38.07,38.07,0,0,0,6.71,3.25,1.1,1.1,0,0,1,.66,1.41A1.12,1.12,0,0,1,104.89,305.72Z"/><path class="cls-4" d="M117.45,308.09h0a40.4,40.4,0,0,1-8.72-1.16,1.1,1.1,0,1,1,.52-2.13,38,38,0,0,0,8.25,1.09,1.1,1.1,0,0,1,0,2.2Z"/><path class="cls-4" d="M121.06,308a1.1,1.1,0,0,1-.07-2.19,40.1,40.1,0,0,0,7.59-1.26,1.1,1.1,0,1,1,.57,2.12,42.13,42.13,0,0,1-8,1.33Z"/><path class="cls-4" d="M132.45,305.59a1.12,1.12,0,0,1-1-.72,1.1,1.1,0,0,1,.66-1.41,41.13,41.13,0,0,0,7.2-3.47,1.1,1.1,0,1,1,1.14,1.87,41.78,41.78,0,0,1-7.59,3.66A1,1,0,0,1,132.45,305.59Z"/><path class="cls-4" d="M143.5,299.51a1.1,1.1,0,0,1-.67-2,39.21,39.21,0,0,0,6.66-6.53,1.1,1.1,0,0,1,1.71,1.37,41,41,0,0,1-7,6.9A1,1,0,0,1,143.5,299.51Z"/><path class="cls-4" d="M153.2,288.71a1.1,1.1,0,0,1-.94-1.67,38.2,38.2,0,0,0,3.54-7.58,1.1,1.1,0,0,1,2.08.71,40.31,40.31,0,0,1-3.74,8A1.11,1.11,0,0,1,153.2,288.71Z"/><path class="cls-4" d="M157.94,277.07a1,1,0,0,1-.25,0,1.1,1.1,0,0,1-.83-1.31,41,41,0,0,0,1-7.8,1.1,1.1,0,1,1,2.19.08,42.81,42.81,0,0,1-1.08,8.21A1.09,1.09,0,0,1,157.94,277.07Z"/><path class="cls-4" d="M159,265.47a1.09,1.09,0,0,1-1.1-1.05c0-1.15-.14-2.32-.28-3.49a11.64,11.64,0,0,0-.63-2.79,1.1,1.1,0,0,1,.63-1.42,1.11,1.11,0,0,1,1.42.63,13.51,13.51,0,0,1,.76,3.33c.15,1.22.24,2.45.29,3.64a1.1,1.1,0,0,1-1,1.15Z"/><path class="cls-21" d="M139.07,119.58a1.06,1.06,0,0,1-.79-.34,1.09,1.09,0,0,1,0-1.55c.21-.21.45-.42.7-.65,1.43-1.3,3-2.76,3-5,0-1.83-1.09-3.73-2.91-3.73a3.17,3.17,0,0,0-1.06.19,1.1,1.1,0,0,1-.71-2.08,5.59,5.59,0,0,1,1.77-.31c3.19,0,5.11,3,5.11,5.93,0,3.21-2.18,5.18-3.76,6.62l-.66.61A1.09,1.09,0,0,1,139.07,119.58Z"/><path class="cls-24" d="M156.61,55.63a1.19,1.19,0,0,1-.6-.17,1.11,1.11,0,0,1-.32-1.52c2.63-4.07,7.06-7.43,12.82-9.71a1.1,1.1,0,0,1,1.43.61,1.11,1.11,0,0,1-.62,1.43c-3.72,1.47-8.78,4.21-11.79,8.86A1.1,1.1,0,0,1,156.61,55.63Z"/><path class="cls-24" d="M146.75,49.86a1.13,1.13,0,0,1-.32,0,1.1,1.1,0,0,1-.73-1.37A23.83,23.83,0,0,1,155,35.57a1.11,1.11,0,0,1,1.53.27,1.09,1.09,0,0,1-.27,1.53,21.34,21.34,0,0,0-8.43,11.71A1.11,1.11,0,0,1,146.75,49.86Z"/><path class="cls-7" d="M58.82,294.73a1.1,1.1,0,0,1-1.08-.93,35.51,35.51,0,0,1-.3-5.52,1.1,1.1,0,0,1,2.2,0,34.64,34.64,0,0,0,.27,5.19,1.1,1.1,0,0,1-.93,1.25Z"/><path class="cls-7" d="M64.46,293.85a1.09,1.09,0,0,1-1.09-1,36.27,36.27,0,0,1-.16-3.92v-1.31a1.1,1.1,0,0,1,2.2,0V289a36.58,36.58,0,0,0,.14,3.69,1.08,1.08,0,0,1-1,1.2Z"/><path class="cls-7" d="M208.12,284.8a17.66,17.66,0,0,1-6.1-1.1,1.1,1.1,0,0,1,.76-2.06,15.29,15.29,0,0,0,6.92.89,1.1,1.1,0,1,1,.22,2.18Q209,284.8,208.12,284.8Z"/><path class="cls-7" d="M206.91,279h-.1a16.3,16.3,0,0,1-5.49-1.52,1.1,1.1,0,0,1,1-2,13.81,13.81,0,0,0,4.73,1.31,1.1,1.1,0,0,1-.1,2.19Z"/><path class="cls-7" d="M205.1,272.86H205a20.48,20.48,0,0,1-4.73-1,1.1,1.1,0,1,1,.69-2.09,17.65,17.65,0,0,0,4.2.9,1.1,1.1,0,0,1-.08,2.2Z"/><circle class="cls-13" cx="174.65" cy="152.44" r="4.09"/><path class="cls-13" d="M36.58,278a1.12,1.12,0,0,1-.79-.34,34.92,34.92,0,0,1,.76-48.91,33.16,33.16,0,0,1,22.64-9.27c20.58,0,30.36,10.82,39.82,21.29,8.75,9.67,17,18.81,33.4,18.81,12.28,0,25.41-8.52,25.41-32.42,0-5.33-.48-10.94-.94-16.35-.41-4.8-.83-9.75-.9-14.38-.22-14,2.39-24.27,17.8-44.65a1.09,1.09,0,0,1,1.53-.21,1.1,1.1,0,0,1,.22,1.54c-15.12,20-17.57,29.51-17.36,43.29.07,4.55.47,9.25.9,14.22.47,5.46,1,11.12,1,16.54,0,25.52-14.26,34.62-27.61,34.62-17.36,0-26.34-9.94-35-19.54-9.14-10.11-18.59-20.56-38.19-20.56-19,0-30.83,16.62-30.83,32a31.31,31.31,0,0,0,9,22.44,1.1,1.1,0,0,1-.79,1.86Z"/><path class="cls-4" d="M349,76.12H283.39c.62-1.75,1.07-3.66,1.71-5.51a11.78,11.78,0,0,1,9.61-7.81,11.8,11.8,0,0,1,1.46-.09l40.54-.06a16.66,16.66,0,0,1,2.3.15c6.3.91,8.83,5.62,9.68,11.14C348.8,74.66,348.89,75.38,349,76.12Z"/><path class="cls-16" d="M310.08,49.26a6.66,6.66,0,0,1-3-5.4c0-4.63,5.28-9.28,11.35-9.28,5.75,0,8.7,3.63,8.7,8.3a8.92,8.92,0,0,1-2.77,6.64c.81-.07,1.57-.11,2.29-.11,7.53,0,10.8,3.92,11.94,9.76A27.07,27.07,0,0,1,339,62.8a16.66,16.66,0,0,0-2.3-.15l-40.54.06a11.8,11.8,0,0,0-1.46.09,15.91,15.91,0,0,1,3.85-9.07c2.8-3,5.11-4.51,10.1-4.51C309.12,49.22,309.6,49.24,310.08,49.26Z"/><rect class="cls-4" x="294.98" y="66.19" width="12.45" height="9.98"/></svg>